<svg width="48" height="48" viewBox="0 0 48 48" fill="none" xmlns="http://www.w3.org/2000/svg">
<g id="ac-icon">
<g id="ac-icon_2">
<rect id="Rectangle 30" x="1.5" y="7.5" width="45" height="17" rx="4.5" stroke="#1A1A40" stroke-width="3"/>
<path id="Rectangle 31" d="M12 19.5H36C38.4853 19.5 40.5 21.5147 40.5 24V24.5H7.5V24C7.5 21.5147 9.51472 19.5 12 19.5Z" stroke="#1A1A40" stroke-width="3"/>
<rect id="Rectangle 32" x="34" y="12" width="8" height="3" rx="1.5" fill="#FC5134"/>
<path id="Vector 17 (Stroke)" fill-rule="evenodd" clip-rule="evenodd" d="M39.6857 28.9393C40.2715 29.5251 40.2715 30.4749 39.6857 31.0607C36.7714 33.9749 36.7715 39.0251 39.6857 41.9393C40.2715 42.5251 40.2715 43.4749 39.6857 44.0607C39.0999 44.6464 38.1502 44.6464 37.5644 44.0607C33.4786 39.9749 33.4785 33.0251 37.5644 28.9393C38.1502 28.3535 39.0999 28.3536 39.6857 28.9393Z" fill="#1A1A40"/>
<path id="Vector 20 (Stroke)" fill-rule="evenodd" clip-rule="evenodd" d="M8.9393 28.9393C8.35352 29.5251 8.35353 30.4749 8.93932 31.0607C11.8536 33.9749 11.8535 39.0251 8.93931 41.9393C8.35353 42.5251 8.35352 43.4749 8.93931 44.0607C9.52509 44.6464 10.4748 44.6464 11.0606 44.0607C15.1464 39.9749 15.1465 33.0251 11.0606 28.9393C10.4748 28.3535 9.52508 28.3536 8.9393 28.9393Z" fill="#1A1A40"/>
<path id="Vector 18 (Stroke)" fill-rule="evenodd" clip-rule="evenodd" d="M39.6857 28.9393C40.2715 29.5251 40.2715 30.4749 39.6857 31.0607C36.7714 33.9749 36.7715 39.0251 39.6857 41.9393C40.2715 42.5251 40.2715 43.4749 39.6857 44.0607C39.0999 44.6464 38.1502 44.6464 37.5644 44.0607C33.4786 39.9749 33.4785 33.0251 37.5644 28.9393C38.1502 28.3535 39.0999 28.3536 39.6857 28.9393Z" fill="#1A1A40"/>
<path id="Vector 21 (Stroke)" fill-rule="evenodd" clip-rule="evenodd" d="M8.9393 28.9393C8.35352 29.5251 8.35353 30.4749 8.93932 31.0607C11.8536 33.9749 11.8535 39.0251 8.93931 41.9393C8.35353 42.5251 8.35352 43.4749 8.93931 44.0607C9.52509 44.6464 10.4748 44.6464 11.0606 44.0607C15.1464 39.9749 15.1465 33.0251 11.0606 28.9393C10.4748 28.3535 9.52508 28.3536 8.9393 28.9393Z" fill="#1A1A40"/>
<path id="Vector 19 (Stroke)" fill-rule="evenodd" clip-rule="evenodd" d="M33.6857 28.9393C34.2715 29.5251 34.2715 30.4749 33.6857 31.0607C30.7714 33.9749 30.7715 39.0251 33.6857 41.9393C34.2715 42.5251 34.2715 43.4749 33.6857 44.0607C33.0999 44.6464 32.1502 44.6464 31.5644 44.0607C27.4786 39.9749 27.4785 33.0251 31.5644 28.9393C32.1502 28.3535 33.0999 28.3536 33.6857 28.9393Z" fill="#1A1A40"/>
<path id="Vector 22 (Stroke)" fill-rule="evenodd" clip-rule="evenodd" d="M14.9393 28.9393C14.3535 29.5251 14.3535 30.4749 14.9393 31.0607C17.8536 33.9749 17.8535 39.0251 14.9393 41.9393C14.3535 42.5251 14.3535 43.4749 14.9393 44.0607C15.5251 44.6464 16.4748 44.6464 17.0606 44.0607C21.1464 39.9749 21.1465 33.0251 17.0606 28.9393C16.4748 28.3535 15.5251 28.3536 14.9393 28.9393Z" fill="#1A1A40"/>
</g>
</g>
</svg>
