<svg width="48" height="48" viewBox="0 0 48 48" fill="none" xmlns="http://www.w3.org/2000/svg">
<g id="tv-icon">
<g id="tv">
<rect id="Rectangle 33" x="13" y="41" width="23" height="3" rx="1.5" fill="#1A1A40"/>
<rect id="Rectangle 34" x="18" y="44" width="10" height="3" rx="1.5" transform="rotate(-90 18 44)" fill="#1A1A40"/>
<rect id="Rectangle 35" x="29" y="44" width="10" height="3" rx="1.5" transform="rotate(-90 29 44)" fill="#1A1A40"/>
<rect id="Rectangle 30" x="5.5" y="7.5" width="37" height="26" rx="4.5" stroke="#1A1A40" stroke-width="3"/>
<path id="Polygon 1 (Stroke)" fill-rule="evenodd" clip-rule="evenodd" d="M23 21.7319L26 19.9999L23 18.2678L23 21.7319ZM30.5 20.8659C31.1667 20.481 31.1667 19.5188 30.5 19.1339L21.5 13.9377C20.8333 13.5528 20 14.0339 20 14.8037L20 25.196C20 25.9658 20.8333 26.447 21.5 26.0621L30.5 20.8659Z" fill="#FC5134"/>
</g>
</g>
</svg>
