<svg width="48" height="48" viewBox="0 0 48 48" fill="none" xmlns="http://www.w3.org/2000/svg">
<g id="bed-icon">
<g id="bed-icon_2">
<path id="Rectangle 13" d="M12 15.313H19C19.8284 15.313 20.5 15.9846 20.5 16.813V22.313H10.5V16.813C10.5 15.9846 11.1716 15.313 12 15.313Z" stroke="#FC5134" stroke-width="3"/>
<path id="Rectangle 14" d="M29 15.313H36C36.8284 15.313 37.5 15.9846 37.5 16.813V22.313H27.5V16.813C27.5 15.9846 28.1716 15.313 29 15.313Z" stroke="#FC5134" stroke-width="3"/>
<path id="Rectangle 12" d="M12 24.313H36C41.799 24.313 46.5 29.014 46.5 34.813V35.313H1.5V34.813C1.5 29.014 6.20101 24.313 12 24.313Z" stroke="#1A1A40" stroke-width="3"/>
<path id="Vector 11 (Stroke)" fill-rule="evenodd" clip-rule="evenodd" d="M0 43.813V34.813H3V43.813C3 44.6414 2.32843 45.313 1.5 45.313C0.671573 45.313 0 44.6414 0 43.813Z" fill="#1A1A40"/>
<path id="Vector 12 (Stroke)" fill-rule="evenodd" clip-rule="evenodd" d="M45 43.813V34.813H48V43.813C48 44.6414 47.3284 45.313 46.5 45.313C45.6716 45.313 45 44.6414 45 43.813Z" fill="#1A1A40"/>
<path id="Vector 13 (Stroke)" fill-rule="evenodd" clip-rule="evenodd" d="M0.5 40.813C0.5 39.9846 1.17157 39.313 2 39.313L45 39.313C45.8284 39.313 46.5 39.9846 46.5 40.813C46.5 41.6414 45.8284 42.313 45 42.313L2 42.313C1.17157 42.313 0.5 41.6414 0.5 40.813Z" fill="#1A1A40"/>
<path id="Vector 14 (Stroke)" fill-rule="evenodd" clip-rule="evenodd" d="M7.5 8.88865V26.8131H4.5V6.74767L5.50594 6.39676C12.796 3.85373 27.6662 0.215623 42.5769 6.42844L43.5 6.81306V26.8131H40.5V8.82645C27.5504 3.80456 14.6435 6.54067 7.5 8.88865Z" fill="#1A1A40"/>
</g>
</g>
</svg>
