<svg width="48" height="48" viewBox="0 0 48 48" fill="none" xmlns="http://www.w3.org/2000/svg">
<g id="bath-icon">
<g id="bath-icon_2">
<path id="Rectangle 19" d="M3.5 24.814H44.5V29.314C44.5 34.5607 40.2467 38.814 35 38.814H13C7.75329 38.814 3.5 34.5607 3.5 29.314V24.814Z" stroke="#1A1A40" stroke-width="3"/>
<path id="Vector 16 (Stroke)" fill-rule="evenodd" clip-rule="evenodd" d="M15.4325 9.9614C16.2861 11.0552 16.818 12.5299 16.961 14.3149C17.0051 14.8654 16.5523 15.314 16 15.314H15C14.4477 15.314 14.008 14.8644 13.9483 14.3154C13.8182 13.1175 13.4591 12.3089 13.0675 11.8072C12.5883 11.1932 12.0314 10.9856 11.5469 11.0008C10.6568 11.0286 9 12.0361 9 15.314V19.8141C9 20.3663 8.55228 20.8141 8 20.8141H7C6.44772 20.8141 6 20.3663 6 19.8141V15.314C6 11.092 8.34325 8.09946 11.4531 8.00226C12.9686 7.95489 14.4117 8.65359 15.4325 9.9614Z" fill="#FC5134"/>
<rect id="Rectangle 17" x="2" y="19.314" width="11" height="3" rx="1.5" fill="#FC5134"/>
<rect id="Rectangle 18" y="23.314" width="48" height="3" rx="1.5" fill="#1A1A40"/>
<rect id="Rectangle 20" x="13" y="37.314" width="3" height="7" rx="1.5" fill="#1A1A40"/>
<rect id="Rectangle 21" x="32" y="37.314" width="3" height="7" rx="1.5" fill="#1A1A40"/>
</g>
</g>
</svg>
