<svg width="48" height="48" viewBox="0 0 48 48" fill="none" xmlns="http://www.w3.org/2000/svg">
<g id="dining-table">
<g id="dining-table_2">
<rect id="Rectangle 22" x="11" y="24" width="27" height="3" rx="1.5" fill="#FC5134"/>
<rect id="Rectangle 23" x="23" y="44" width="20" height="3" rx="1.5" transform="rotate(-90 23 44)" fill="#FC5134"/>
<rect id="Rectangle 24" x="4" y="44" width="28" height="3" rx="1.5" transform="rotate(-90 4 44)" fill="#1A1A40"/>
<rect id="Rectangle 27" width="28" height="3" rx="1.5" transform="matrix(0 -1 -1 0 44 44)" fill="#1A1A40"/>
<rect id="Rectangle 26" x="17" y="44" width="10" height="3" rx="1.5" transform="rotate(-90 17 44)" fill="#1A1A40"/>
<rect id="Rectangle 28" width="10" height="3" rx="1.5" transform="matrix(0 -1 -1 0 31 44)" fill="#1A1A40"/>
<path id="Rectangle 25" d="M5.5 31.5H16C17.3807 31.5 18.5 32.6193 18.5 34V35.5H5.5V31.5Z" stroke="#1A1A40" stroke-width="3"/>
<path id="Rectangle 29" d="M42.5 31.5H32C30.6193 31.5 29.5 32.6193 29.5 34V35.5H42.5V31.5Z" stroke="#1A1A40" stroke-width="3"/>
</g>
</g>
</svg>
