<svg width="48" height="48" viewBox="0 0 48 48" fill="none" xmlns="http://www.w3.org/2000/svg">
<g id="single-bed-icon">
<g id="bed-icon">
<g id="bed-icon_2">
<path id="Rectangle 13" d="M20.5 15H27.5C28.3284 15 29 15.6716 29 16.5V22H19V16.5C19 15.6716 19.6716 15 20.5 15Z" stroke="#FC5134" stroke-width="2"/>
<path id="Rectangle 12 (Stroke)" fill-rule="evenodd" clip-rule="evenodd" d="M5.71313 34H42.2869C42.0656 28.9857 38.5353 25 34.2128 25H13.7872C9.46469 25 5.93442 28.9857 5.71313 34ZM4 34.5C4 28.1487 8.38189 23 13.7872 23H34.2128C39.6181 23 44 28.1487 44 34.5V36H4V34.5Z" fill="#1A1A40"/>
<path id="Vector 11 (Stroke)" fill-rule="evenodd" clip-rule="evenodd" d="M4 44V35H6V44C6 44.8284 5.55229 45.5 5 45.5C4.44772 45.5 4 44.8284 4 44Z" fill="#1A1A40"/>
<path id="Vector 12 (Stroke)" fill-rule="evenodd" clip-rule="evenodd" d="M42 44V35H44V44C44 44.8284 43.5523 45.5 43 45.5C42.4477 45.5 42 44.8284 42 44Z" fill="#1A1A40"/>
<path id="Vector 13 (Stroke)" fill-rule="evenodd" clip-rule="evenodd" d="M4 40C4 39.4477 4.58397 39 5.30435 39H42.6957C43.416 39 44 39.4477 44 40C44 40.5523 43.416 41 42.6957 41H5.30435C4.58397 41 4 40.5523 4 40Z" fill="#1A1A40"/>
<path id="Vector 14 (Stroke)" fill-rule="evenodd" clip-rule="evenodd" d="M9.64103 6.92715V26.0001H8V5.77722L8.82539 5.42355C14.807 2.86056 27.0082 -0.806098 39.2426 5.45548L40 5.84312V26.0001H38.359V6.86446C27.7337 1.80316 15.5024 4.56074 9.64103 6.92715Z" fill="#1A1A40"/>
</g>
</g>
</g>
</svg>
