<svg width="48" height="48" viewBox="0 0 48 48" fill="none" xmlns="http://www.w3.org/2000/svg">
<g id="wifi-icon">
<g id="wifi">
<circle id="Ellipse 14" cx="23.522" cy="38" r="5" stroke="#FC5134" stroke-width="2"/>
<path id="Ellipse 15" d="M31.2434 30.2784C31.6651 29.8566 31.668 29.1686 31.21 28.7864C30.2802 28.0105 29.2366 27.3785 28.114 26.9134C26.6581 26.3104 25.0976 26 23.5218 26C21.9459 26 20.3855 26.3104 18.9296 26.9134C17.8069 27.3785 16.7633 28.0105 15.8335 28.7864C15.3755 29.1686 15.3784 29.8566 15.8002 30.2784V30.2784C16.2219 30.7002 16.9024 30.6948 17.3678 30.3218C18.0918 29.7415 18.8956 29.2655 19.7562 28.909C20.95 28.4145 22.2296 28.16 23.5218 28.16C24.814 28.16 26.0935 28.4145 27.2874 28.909C28.1479 29.2655 28.9517 29.7415 29.6757 30.3218C30.1411 30.6948 30.8216 30.7002 31.2434 30.2784V30.2784Z" fill="#1A1A40"/>
<path id="Ellipse 16" d="M35.486 26.0358C35.9078 25.614 35.9098 24.9275 35.4635 24.5318C33.9684 23.206 32.2609 22.1368 30.4101 21.3702C28.2262 20.4656 25.8855 20 23.5218 20C21.158 20 18.8173 20.4656 16.6335 21.3702C14.7826 22.1368 13.0751 23.206 11.58 24.5318C11.1337 24.9275 11.1357 25.614 11.5575 26.0358V26.0358C11.9793 26.4575 12.6608 26.4544 13.1103 26.0624C14.4027 24.9352 15.8713 24.0238 17.46 23.3657C19.3818 22.5697 21.4416 22.16 23.5218 22.16C25.6019 22.16 27.6617 22.5697 29.5835 23.3657C31.1722 24.0238 32.6408 24.9352 33.9332 26.0624C34.3827 26.4544 35.0642 26.4575 35.486 26.0358V26.0358Z" fill="#1A1A40"/>
<path id="Ellipse 17" d="M39.7286 21.7931C40.1504 21.3713 40.152 20.6855 39.7117 20.2832C37.6552 18.4039 35.285 16.8951 32.7061 15.8269C29.7943 14.6208 26.6734 14 23.5217 14C20.37 14 17.2491 14.6208 14.3373 15.8269C11.7585 16.8951 9.38829 18.4039 7.33177 20.2832C6.89146 20.6856 6.89307 21.3714 7.31484 21.7931V21.7931C7.7366 22.2149 8.41866 22.2127 8.86076 21.8123C10.7155 20.1325 12.8471 18.7821 15.1639 17.8225C17.8137 16.7249 20.6537 16.16 23.5217 16.16C26.3898 16.16 29.2298 16.7249 31.8795 17.8225C34.1963 18.7821 36.328 20.1325 38.1827 21.8123C38.6248 22.2127 39.3068 22.2149 39.7286 21.7931V21.7931Z" fill="#1A1A40"/>
</g>
</g>
</svg>
